<svg xmlns="http://www.w3.org/2000/svg" width="167" height="39" viewBox="0 0 167 39" fill="none"><path d="M0.234375 5.35282C0.234375 4.43135 0.978403 3.68481 1.8972 3.68481C2.816 3.68481 3.56003 4.43135 3.56003 5.35282C3.56003 6.27429 2.816 7.02083 1.8972 7.02083C0.978403 7.02083 0.234375 6.27429 0.234375 5.35282Z" fill="url(#paint0_linear_1631_1238)"></path><path d="M4.58619 5.43905C4.58619 5.47601 4.59118 5.51297 4.59368 5.54993C4.59368 5.56717 4.59867 5.58688 4.60117 5.60413C4.60866 5.64602 4.61365 5.68544 4.62364 5.72732C4.62614 5.73718 4.62863 5.7495 4.63113 5.75935C4.64361 5.80863 4.6561 5.85544 4.67357 5.90226V5.90718C4.90078 6.55517 5.51498 7.02083 6.23903 7.02083H19.4717C21.5091 7.02083 23.4416 7.77969 25.0345 9.03132C25.8459 9.66945 26.8721 10.0489 27.9881 10.0489C29.1042 10.0489 30.1303 9.66699 30.9418 9.03132C32.5347 7.77969 34.4671 7.02083 36.5045 7.02083H36.8166C37.8003 7.02083 38.5893 6.19052 38.5019 5.20253C38.4245 4.3254 37.6205 3.68234 36.7292 3.68234H36.5045C34.4671 3.68234 32.5347 2.92348 30.9418 1.67186C30.1303 1.03373 29.1042 0.654297 27.9881 0.654297C26.8721 0.654297 25.8459 1.03619 25.0345 1.67186C23.3092 3.02697 21.1221 3.68234 18.9175 3.68234H6.24402C5.43258 3.68234 4.75846 4.26627 4.61116 5.03745C4.61116 5.04977 4.60866 5.06209 4.60616 5.07441C4.59867 5.11383 4.59368 5.15325 4.58869 5.19267C4.58869 5.19514 4.58869 5.1976 4.58869 5.20253C4.58869 5.21977 4.58869 5.23456 4.58869 5.2518C4.58869 5.2863 4.58369 5.31833 4.58369 5.35282C4.58369 5.36021 4.58369 5.36514 4.58369 5.37253C4.58369 5.39471 4.58369 5.41688 4.58619 5.43905Z" fill="url(#paint1_linear_1631_1238)"></path><path d="M36.8216 32.0657C35.8878 32.0657 35.1313 32.8122 35.1313 33.7337C35.1313 34.6552 35.8878 35.4017 36.8216 35.4017C37.7554 35.4017 38.5119 34.6552 38.5119 33.7337C38.5119 32.8122 37.7554 32.0657 36.8216 32.0657Z" fill="url(#paint2_linear_1631_1238)"></path><path d="M36.8216 21.215C37.7554 21.215 38.5119 20.4684 38.5119 19.5469C38.5119 18.6255 37.7554 17.8789 36.8216 17.8789H34.4022C30.7195 17.8789 27.0344 17.1299 23.7911 15.4077C23.122 15.0529 22.358 14.8509 21.5465 14.8509C20.7351 14.8509 19.9686 15.0529 19.302 15.4077C16.0587 17.1299 12.3735 17.8789 8.69083 17.8789H1.92467C0.990887 17.8789 0.234375 18.6255 0.234375 19.5469C0.234375 20.4684 0.990887 21.215 1.92467 21.215H8.69083C12.3735 21.215 16.0587 21.964 19.302 23.6862C19.9711 24.041 20.7351 24.243 21.5465 24.243C22.358 24.243 23.1245 24.041 23.7911 23.6862C27.0344 21.964 30.7195 21.215 34.4022 21.215H36.8216Z" fill="url(#paint3_linear_1631_1238)"></path><path d="M3.87462 35.4042C6.96808 35.4042 10.0565 36.1285 12.6881 37.7349C13.4122 38.176 14.266 38.4322 15.1798 38.4322C16.0937 38.4322 16.8726 38.1981 17.5742 37.7941C20.3081 36.2148 23.4291 35.4066 26.5974 35.4066H32.4173C33.3511 35.4066 34.1076 34.6601 34.1076 33.7386C34.1076 32.8171 33.3511 32.0706 32.4173 32.0706H26.4851C23.3916 32.0706 20.3032 31.3462 17.6716 29.7398C16.9475 29.2988 16.0937 29.0425 15.1798 29.0425C14.266 29.0425 13.4122 29.2963 12.6881 29.7398C10.0565 31.3462 6.96808 32.0706 3.87462 32.0706H1.92716C0.990887 32.0657 0.234375 32.8147 0.234375 33.7361C0.234375 34.6576 0.990887 35.4042 1.92467 35.4042H3.87462Z" fill="url(#paint4_linear_1631_1238)"></path><path d="M106.825 10.0637V11.5272H112.213V29.0499H113.861V11.5272H119.249V10.0637H106.825Z" fill="#141416"></path><path d="M133.098 11.5272V10.0637H122.27V29.0499H133.098V27.5864H123.918V20.2344H133.098V18.8792H123.918V11.5272H133.098Z" fill="#141416"></path><path d="M165.254 10.0612V18.9039H154.148V10.0612H152.498V29.0499H154.148V20.2615H165.254V29.0499H166.902V10.0612H165.254Z" fill="#141416"></path><path d="M51.3626 13.0991H56.4135V29.0524H60.3683V13.0991H65.4192V10.0637H51.3626V13.0991Z" fill="#141416"></path><path d="M80.7567 22.9667L72.5948 10.0612H68.1956V29.0499H72.1804V16.1444L80.3397 29.0499H84.7115V10.0612H80.7567V22.9667Z" fill="#141416"></path><path d="M147.842 24.2405C147.552 25.1177 147.06 26.1451 146.466 26.6625C145.602 27.414 144.371 27.7909 142.883 27.7909C141.1 27.7909 139.79 27.3006 138.943 26.3225C138.099 25.3443 137.677 23.8315 137.677 21.7841V17.162C137.677 15.186 138.114 13.72 138.986 12.7591C139.857 11.7982 141.165 11.3178 142.91 11.3178C144.344 11.3178 145.51 11.6528 146.336 12.323C146.978 12.8429 147.502 13.89 147.802 14.846H149.479C149.09 13.3898 148.353 11.9682 147.41 11.1946C146.316 10.2977 144.803 9.84931 142.91 9.84931C141.422 9.84931 140.169 10.1302 139.15 10.6919C138.132 11.2537 137.355 12.0791 136.823 13.1656C136.292 14.2522 136.024 15.5851 136.024 17.162V21.7841C136.024 23.4152 136.287 24.7875 136.808 25.9012C137.333 27.0148 138.104 27.855 139.123 28.4143C140.142 28.976 141.395 29.2569 142.883 29.2569C144.83 29.2569 146.426 28.7641 147.554 27.7761C148.446 26.9976 149.117 25.5981 149.477 24.2381H147.842V24.2405Z" fill="#141416"></path><path d="M104.775 27.2563L102.94 26.9212C103.255 26.5763 103.544 26.1796 103.777 25.7706C104.438 24.6101 104.775 23.1885 104.775 21.5476V17.6399C104.775 15.9818 104.438 14.5552 103.777 13.4022C103.11 12.2417 102.124 11.3473 100.85 10.7461C99.5896 10.1499 98.0366 9.84931 96.2389 9.84931C94.4413 9.84931 92.9158 10.1524 91.6549 10.7461C90.3791 11.3473 89.3904 12.2417 88.7163 13.4022C88.0446 14.5552 87.7026 15.9818 87.7026 17.6399V21.5476C87.7026 23.1885 88.0421 24.6101 88.7138 25.7706C89.3879 26.9384 90.3791 27.8377 91.6549 28.4389C92.2317 28.7124 92.8858 28.9267 93.5999 29.077L104.775 31.1171V27.2513V27.2563ZM100.166 25.3665C99.3299 26.3176 97.6596 25.9554 97.6596 25.9554L94.7758 25.4281C93.9594 25.2532 93.3028 24.8368 92.8209 24.3416C92.0719 23.5704 91.6924 22.373 91.6924 20.7838V17.741C91.6924 16.1518 92.0719 14.9544 92.8209 14.1832C93.5674 13.4145 94.7184 13.0252 96.2389 13.0252C97.7595 13.0252 98.9104 13.4145 99.657 14.1832C100.406 14.9544 100.785 16.1518 100.785 17.741V23.5211C100.785 24.3021 100.738 24.7161 100.164 25.3665H100.166Z" fill="#141416"></path><defs><linearGradient id="paint0_linear_1631_1238" x1="1197.81" y1="-228.915" x2="1014.4" y2="593.611" gradientUnits="userSpaceOnUse"><stop stop-color="#00AAD8"></stop><stop offset="0.14" stop-color="#00A5D2"></stop><stop offset="0.31" stop-color="#029AC3"></stop><stop offset="0.5" stop-color="#0487A9"></stop><stop offset="0.71" stop-color="#086C86"></stop><stop offset="0.92" stop-color="#0D4A59"></stop><stop offset="1" stop-color="#0F3C46"></stop></linearGradient><linearGradient id="paint1_linear_1631_1238" x1="126.17" y1="-31.1295" x2="29.3101" y2="145.485" gradientUnits="userSpaceOnUse"><stop stop-color="#00AAD8"></stop><stop offset="0.85" stop-color="#0C4C5B"></stop><stop offset="1" stop-color="#0F3C46"></stop></linearGradient><linearGradient id="paint2_linear_1631_1238" x1="1167.4" y1="-226.097" x2="981.252" y2="595.133" gradientUnits="userSpaceOnUse"><stop stop-color="#00AAD8"></stop><stop offset="0.14" stop-color="#00A5D2"></stop><stop offset="0.31" stop-color="#029AC3"></stop><stop offset="0.5" stop-color="#0487A9"></stop><stop offset="0.71" stop-color="#086C86"></stop><stop offset="0.92" stop-color="#0D4A59"></stop><stop offset="1" stop-color="#0F3C46"></stop></linearGradient><linearGradient id="paint3_linear_1631_1238" x1="145.137" y1="-41.2265" x2="3.81621" y2="126.619" gradientUnits="userSpaceOnUse"><stop stop-color="#00AAD8"></stop><stop offset="0.6" stop-color="#086982"></stop><stop offset="1" stop-color="#0F3C46"></stop></linearGradient><linearGradient id="paint4_linear_1631_1238" x1="173.191" y1="-87.6395" x2="73.6512" y2="95.1826" gradientUnits="userSpaceOnUse"><stop stop-color="#00AAD8"></stop><stop offset="0.14" stop-color="#00A5D2"></stop><stop offset="0.31" stop-color="#029AC3"></stop><stop offset="0.5" stop-color="#0487A9"></stop><stop offset="0.71" stop-color="#086C86"></stop><stop offset="0.92" stop-color="#0D4A59"></stop><stop offset="1" stop-color="#0F3C46"></stop></linearGradient></defs></svg>